<svg xmlns="http://www.w3.org/2000/svg" viewBox="0 0 512 512" width="100%" height="100%">
  <!-- Rounded background -->
  <rect width="512" height="512" rx="112" fill="#3546b5"/>
  <!-- Glowing warm heart representing Lovira (Love goes Viral) -->
  <path d="M256 410c-5-5-100-94-150-151a106 106 0 0 1 0-150 106 106 0 0 1 150 0c11 11 22 28 28 39 6-11 17-28 28-39a106 106 0 0 1 150 0 106 106 0 0 1 0 150c-50 57-145 146-150 151z" fill="#fcd34d" opacity="0.95"/>
  <path d="M256 375c-3-3-80-75-120-120a85 85 0 0 1 0-120 85 85 0 0 1 120 0c9 9 17 22 22 31 5-9 13-22 22-31a85 85 0 0 1 120 0 85 85 0 0 1 0 120c-40 45-117 117-120 120z" fill="#ffffff"/>
  <!-- Center humanistic connection / eye symbol -->
  <circle cx="256" cy="215" r="32" fill="#3546b5"/>
  <path d="M192 215c18-28 55-52 64-52s46 24 64 52-55 52-64 52-46-24-64-52z" fill="none" stroke="#3546b5" stroke-width="14" stroke-linecap="round"/>
</svg>
